<svg width="76" height="76" viewBox="0 0 76 76" fill="none" xmlns="http://www.w3.org/2000/svg">
<g clip-path="url(#clip0_152_2682)">
<path d="M76 38C76 17.0132 58.9868 0 38 0C17.0132 0 0 17.0132 0 38C0 56.9666 13.896 72.6876 32.0625 75.5384V48.9844H22.4141V38H32.0625V29.6281C32.0625 20.1044 37.7358 14.8437 46.4157 14.8437C50.5719 14.8437 54.9219 15.5859 54.9219 15.5859V24.9375H50.1303C45.41 24.9375 43.9375 27.8669 43.9375 30.875V38H54.4766L52.7918 48.9844H43.9375V75.5384C62.104 72.6876 76 56.9666 76 38Z" fill="white"/>
</g>
<defs>
<clipPath id="clip0_152_2682">
<rect width="76" height="76" fill="white"/>
</clipPath>
</defs>
</svg>
