<svg width="79" height="76" viewBox="0 0 79 76" fill="none" xmlns="http://www.w3.org/2000/svg">
<g clip-path="url(#clip0_152_2684)">
<path d="M39.5 6.84297C50.0539 6.84297 51.3037 6.8875 55.4543 7.06562C59.3117 7.22891 61.3947 7.85234 62.7834 8.37188C64.6195 9.05469 65.9465 9.88594 67.3197 11.207C68.7084 12.543 69.557 13.8047 70.2668 15.5711C70.8068 16.907 71.4549 18.9258 71.6246 22.6219C71.8098 26.6297 71.8561 27.832 71.8561 37.9703C71.8561 48.1234 71.8098 49.3258 71.6246 53.3188C71.4549 57.0297 70.8068 59.0336 70.2668 60.3695C69.557 62.1359 68.693 63.4125 67.3197 64.7336C65.9311 66.0695 64.6195 66.8859 62.7834 67.5688C61.3947 68.0883 59.2963 68.7117 55.4543 68.875C51.2883 69.0531 50.0385 69.0977 39.5 69.0977C28.9461 69.0977 27.6963 69.0531 23.5457 68.875C19.6883 68.7117 17.6053 68.0883 16.2166 67.5688C14.3805 66.8859 13.0535 66.0547 11.6803 64.7336C10.2916 63.3977 9.44297 62.1359 8.7332 60.3695C8.19316 59.0336 7.54512 57.0149 7.37539 53.3188C7.19023 49.3109 7.14395 48.1086 7.14395 37.9703C7.14395 27.8172 7.19023 26.6148 7.37539 22.6219C7.54512 18.9109 8.19316 16.907 8.7332 15.5711C9.44297 13.8047 10.307 12.5281 11.6803 11.207C13.0689 9.87109 14.3805 9.05469 16.2166 8.37188C17.6053 7.85234 19.7037 7.22891 23.5457 7.06562C27.6963 6.8875 28.9461 6.84297 39.5 6.84297ZM39.5 0C28.7764 0 27.434 0.0445312 23.2217 0.222656C19.0248 0.400781 16.1395 1.05391 13.6398 1.98906C11.0322 2.96875 8.82578 4.26016 6.63477 6.38281C4.42832 8.49063 3.08594 10.6133 2.06758 13.107C1.09551 15.5266 0.416602 18.2875 0.231445 22.325C0.0462891 26.3922 0 27.6836 0 38C0 48.3164 0.0462891 49.6078 0.231445 53.6602C0.416602 57.6977 1.09551 60.4734 2.06758 62.8781C3.08594 65.3867 4.42832 67.5094 6.63477 69.6172C8.82578 71.725 11.0322 73.0312 13.6244 73.9961C16.1395 74.9313 19.0094 75.5844 23.2062 75.7625C27.4186 75.9406 28.7609 75.9852 39.4846 75.9852C50.2082 75.9852 51.5506 75.9406 55.7629 75.7625C59.9598 75.5844 62.8451 74.9313 65.3447 73.9961C67.9369 73.0312 70.1434 71.725 72.3344 69.6172C74.5254 67.5094 75.8832 65.3867 76.8861 62.893C77.8582 60.4734 78.5371 57.7125 78.7223 53.675C78.9074 49.6227 78.9537 48.3313 78.9537 38.0148C78.9537 27.6984 78.9074 26.407 78.7223 22.3547C78.5371 18.3172 77.8582 15.5414 76.8861 13.1367C75.9141 10.6133 74.5717 8.49063 72.3652 6.38281C70.1742 4.275 67.9678 2.96875 65.3756 2.00391C62.8605 1.06875 59.9906 0.415625 55.7938 0.2375C51.566 0.0445313 50.2236 0 39.5 0Z" fill="white"/>
<path d="M39.5 18.4805C28.298 18.4805 19.21 27.2234 19.21 38C19.21 48.7766 28.298 57.5195 39.5 57.5195C50.702 57.5195 59.79 48.7766 59.79 38C59.79 27.2234 50.702 18.4805 39.5 18.4805ZM39.5 50.6617C32.2326 50.6617 26.3385 44.9914 26.3385 38C26.3385 31.0086 32.2326 25.3383 39.5 25.3383C46.7674 25.3383 52.6615 31.0086 52.6615 38C52.6615 44.9914 46.7674 50.6617 39.5 50.6617Z" fill="white"/>
<path d="M65.3293 17.7084C65.3293 20.2318 63.2 22.2654 60.5924 22.2654C57.9693 22.2654 55.8555 20.217 55.8555 17.7084C55.8555 15.185 57.9848 13.1514 60.5924 13.1514C63.2 13.1514 65.3293 15.1998 65.3293 17.7084Z" fill="white"/>
</g>
<defs>
<clipPath id="clip0_152_2684">
<rect width="79" height="76" fill="white"/>
</clipPath>
</defs>
</svg>
