<svg width="614" height="71" viewBox="0 0 614 71" fill="none" xmlns="http://www.w3.org/2000/svg">
<g clip-path="url(#clip0_127_1420)">
<path d="M8.97869 17.5052H0V45.0805C2.91362 44.5305 5.91642 43.9953 8.97869 43.4899V17.5052Z" fill="#9FAEE5"/>
<path d="M63.8171 34.6301H71.1606V27.0636H63.8171V19.0809H54.9573V27.0636H51.2261V34.6301H54.9573V38.064C57.8858 37.8411 60.8291 37.6329 63.8171 37.4397V34.6301Z" fill="#9FAEE5"/>
<path d="M91.6154 33.5896C93.7858 33.5896 95.4804 34.4964 96.625 36.0572C99.5684 35.9978 102.527 35.9532 105.515 35.9234C103.463 30.4827 98.944 26.4988 91.6154 26.4988C84.703 26.4988 79.3812 30.7503 77.2257 36.7113C80.2434 36.5775 83.2908 36.4437 86.3531 36.3397C87.5423 34.6004 89.3261 33.5896 91.6154 33.5896Z" fill="#9FAEE5"/>
<path d="M129.195 36.0126C129.998 35.8342 130.845 35.745 131.752 35.745H132.213V26.4839C126.965 26.246 124.052 29.0407 122.253 33.3665V27.0636H113.393V35.8639C113.557 35.8639 113.72 35.8639 113.884 35.8639C119.027 35.8639 124.141 35.9234 129.195 36.0126Z" fill="#9FAEE5"/>
<path d="M156.116 35.745H156.577V26.4839C151.33 26.246 148.416 29.0556 146.617 33.3665V27.0636H137.758V36.2207C142.366 36.3545 146.93 36.5329 151.434 36.741C152.757 36.072 154.332 35.745 156.116 35.745Z" fill="#9FAEE5"/>
<path d="M175.739 33.5895C179.009 33.5895 181.209 35.6558 182.056 38.8519C184.955 39.1195 187.824 39.4019 190.649 39.6992C189.459 32.43 184.688 26.4839 175.753 26.4839C168.618 26.4839 163.192 31.0178 161.171 37.2613C164.04 37.4397 166.879 37.6181 169.688 37.8262C170.788 35.2099 172.87 33.5895 175.739 33.5895Z" fill="#9FAEE5"/>
<path d="M203.834 41.156V41.0371C203.834 36.7856 207.09 33.8125 211.401 33.8125C215.712 33.8125 219.042 36.7856 219.042 41.0371V41.156C219.042 41.9736 218.908 42.7466 218.685 43.4601C221.792 43.9804 224.824 44.5156 227.782 45.0656V27.0636H218.923V31.1367C216.529 28.5204 213.675 26.469 208.844 26.469C201.902 26.469 195.42 31.4043 195.019 40.1749C198.007 40.5168 200.95 40.8736 203.834 41.2601C203.834 41.2303 203.834 41.2006 203.834 41.156Z" fill="#9FAEE5"/>
<path d="M29.4186 34.7044C29.9984 34.422 31.3065 34.1544 31.9457 34.1544C32.585 34.1544 33.8783 34.422 34.458 34.7044C36.7175 35.7748 37.7284 37.3802 38.0257 39.61C40.8353 39.3127 43.6745 39.0451 46.5584 38.7776C45.5624 34.2288 42.8421 30.4083 38.6352 28.2677C36.7027 27.2866 34.4729 26.4839 31.9309 26.4839C29.4038 26.4839 27.1591 27.2866 25.2266 28.2677C19.994 30.9286 17.0506 36.2207 16.902 42.2561C19.8007 41.825 22.7441 41.4236 25.7469 41.0371C25.7617 38.0194 26.6983 35.9829 29.4186 34.7044Z" fill="#9FAEE5"/>
<path d="M8.97869 58.2958V43.4899C5.91642 43.9953 2.91362 44.5304 0 45.0805V58.2958H8.97869Z" fill="#003399"/>
<path d="M64.055 58.8161C67.0281 58.8161 69.1836 58.1175 71.0417 57.0174V49.9118C69.7633 50.6104 68.3065 51.0118 66.6713 51.0118C64.6942 51.0118 63.8172 50.0158 63.8172 47.9793V37.4397C60.8292 37.6329 57.8859 37.8411 54.9574 38.064V49.4361C54.9574 56.6606 58.6291 58.8161 64.055 58.8161Z" fill="#003399"/>
<path d="M76.1703 42.8507C76.1703 52.4091 83.0976 58.9796 92.4776 58.9796C98.1265 58.9796 102.319 56.7647 105.232 53.1524L100.163 48.6631C97.7102 50.9375 95.5548 51.874 92.5965 51.874C88.6275 51.874 85.8328 49.778 84.9706 45.7643H106.704C106.763 44.9467 106.823 44.1291 106.823 43.4305C106.823 40.7844 106.392 38.2127 105.515 35.9086C102.541 35.9383 99.5833 35.9829 96.6251 36.0424C97.4427 37.1424 97.9778 38.5695 98.2008 40.2195H84.8665C85.1341 38.7033 85.6395 37.3802 86.3679 36.3248C83.3057 36.4289 80.2583 36.5478 77.2406 36.6964C76.5568 38.5695 76.1852 40.606 76.1852 42.7318V42.8507H76.1703Z" fill="#003399"/>
<path d="M122.253 58.2958V46.7603C122.253 40.4574 124.84 36.9491 129.195 36.0126C124.126 35.9234 119.027 35.864 113.884 35.864C113.72 35.864 113.557 35.864 113.393 35.864V58.281H122.253V58.2958Z" fill="#003399"/>
<path d="M146.617 58.2958V46.7603C146.617 41.5574 148.371 38.2721 151.434 36.741C146.93 36.5329 142.366 36.3545 137.758 36.2207V58.2958H146.617Z" fill="#003399"/>
<path d="M160.308 42.8507C160.308 52.4091 167.236 58.9796 176.616 58.9796C182.265 58.9796 186.457 56.7647 189.37 53.1524L184.301 48.6631C181.848 50.9375 179.693 51.874 176.735 51.874C172.78 51.874 169.971 49.778 169.109 45.7643H190.842C190.901 44.9467 190.961 44.1291 190.961 43.4305C190.961 42.1669 190.857 40.9182 190.649 39.6992C187.824 39.4019 184.955 39.1195 182.056 38.8519C182.175 39.2979 182.265 39.7587 182.324 40.2344H168.99C169.138 39.3573 169.376 38.5695 169.674 37.8411C166.864 37.633 164.025 37.4397 161.171 37.2762C160.621 38.9857 160.308 40.829 160.308 42.7466V42.8507Z" fill="#003399"/>
<path d="M194.974 41.156C194.974 50.4172 201.56 55.7241 208.844 55.7241C213.556 55.7241 216.41 53.8065 219.041 50.655V52.1713C219.041 57.7607 216.187 60.6743 210.122 60.6743C205.99 60.6743 202.779 59.6189 199.583 57.8201L196.55 64.465C200.504 66.561 205.291 67.7205 210.36 67.7205C216.425 67.7205 220.9 66.4421 223.813 63.5285C226.444 60.9121 227.782 56.8242 227.782 51.2348V45.0656C224.824 44.5008 221.792 43.9656 218.685 43.4602C217.718 46.4481 214.894 48.3806 211.401 48.3806C207.134 48.3806 203.894 45.5116 203.834 41.2601C200.935 40.8736 198.007 40.5168 195.019 40.1749C195.004 40.4574 194.974 40.7398 194.974 41.0371V41.156Z" fill="#003399"/>
<path d="M38.1148 41.1114V58.281H46.9746V42.7169C46.9746 41.3641 46.8259 40.0411 46.5435 38.7627C43.6596 39.0303 40.8203 39.2978 38.0107 39.5952C38.0851 40.0857 38.1148 40.5763 38.1148 41.1114Z" fill="#003399"/>
<path d="M16.8871 42.7169V58.281H25.7469V41.1114C25.7469 41.0817 25.7469 41.0668 25.7469 41.0371C22.744 41.4236 19.8007 41.825 16.902 42.2561C16.902 42.4047 16.8871 42.5682 16.8871 42.7169Z" fill="#003399"/>
<path d="M368.112 0.45459H263.34V70.3071H368.112V0.45459Z" fill="#003399"/>
<path d="M313.496 15.6768L315.711 14.0564L317.911 15.6768L317.064 13.0605L319.323 11.455H316.544L315.711 8.80896L314.849 11.455H312.084L314.329 13.0605L313.496 15.6768Z" fill="#FFCC00"/>
<path d="M302.05 18.7539L304.265 17.1335L306.465 18.7539L305.632 16.1375L307.877 14.5321H305.112L304.265 11.886L303.417 14.5321H300.638L302.882 16.1375L302.05 18.7539Z" fill="#FFCC00"/>
<path d="M295.896 20.2701L295.048 22.9162H292.268L294.528 24.5365L293.681 27.138L295.896 25.5176L298.096 27.138L297.263 24.5365L299.508 22.9162H296.743L295.896 20.2701Z" fill="#FFCC00"/>
<path d="M292.818 36.9491L295.033 38.5695L294.186 35.9532L296.431 34.3477H293.666L292.818 31.7017L291.971 34.3477H289.206L291.451 35.9532L290.604 38.5695L292.818 36.9491Z" fill="#FFCC00"/>
<path d="M296.743 45.8089L295.896 43.1628L295.048 45.8089H292.268L294.528 47.4143L293.681 50.0306L295.896 48.4103L298.096 50.0306L297.263 47.4143L299.508 45.8089H296.743Z" fill="#FFCC00"/>
<path d="M305.127 54.193L304.28 51.5469L303.432 54.193H300.667L302.912 55.7984L302.065 58.4147L304.28 56.8093L306.495 58.4147L305.647 55.7984L307.892 54.193H305.127Z" fill="#FFCC00"/>
<path d="M316.544 57.2255L315.696 54.5795L314.864 57.2404L312.084 57.2255L314.329 58.8458L313.496 61.4473L315.711 59.8418L317.911 61.4473L317.079 58.8458L319.323 57.2255H316.544Z" fill="#FFCC00"/>
<path d="M327.975 54.193L327.128 51.5469L326.28 54.193H323.515L325.76 55.7984L324.913 58.4147L327.128 56.8093L329.343 58.4147L328.495 55.7984L330.74 54.193H327.975Z" fill="#FFCC00"/>
<path d="M336.374 45.8089L335.527 43.1628L334.679 45.8089H331.9L334.144 47.4143L333.312 50.0306L335.527 48.4103L337.727 50.0306L336.894 47.4143L339.139 45.8089H336.374Z" fill="#FFCC00"/>
<path d="M342.171 34.318H339.407L338.559 31.6719L337.712 34.318H334.947L337.192 35.9234L336.344 38.5397L338.559 36.9194L340.774 38.5397L339.927 35.9234L342.171 34.318Z" fill="#FFCC00"/>
<path d="M333.312 27.1082L335.512 25.4879L337.727 27.1082L336.894 24.4919L339.139 22.8865H336.374L335.512 20.2404L334.679 22.8865H331.9L334.144 24.4919L333.312 27.1082Z" fill="#FFCC00"/>
<path d="M327.157 11.886L326.31 14.5321H323.545L325.79 16.1375L324.957 18.7539L327.172 17.1335L329.372 18.7539L328.54 16.1375L330.785 14.5321H328.005L327.157 11.886Z" fill="#FFCC00"/>
<path d="M398.259 22.4851L401.648 23.5554C401.128 25.4433 400.265 26.8555 399.046 27.7771C397.827 28.6988 396.296 29.1596 394.438 29.1596C392.134 29.1596 390.246 28.3718 388.76 26.796C387.273 25.2203 386.53 23.0648 386.53 20.3445C386.53 17.4606 387.273 15.2159 388.76 13.6104C390.246 12.0198 392.208 11.2171 394.646 11.2171C396.772 11.2171 398.496 11.8414 399.819 13.105C400.607 13.8483 401.202 14.9186 401.588 16.3011L398.125 17.1335C397.917 16.2416 397.486 15.5281 396.846 15.0078C396.192 14.4875 395.404 14.2199 394.468 14.2199C393.189 14.2199 392.134 14.6807 391.346 15.6024C390.543 16.524 390.142 18.0255 390.142 20.0917C390.142 22.2918 390.543 23.8527 391.331 24.7743C392.119 25.7109 393.145 26.1717 394.408 26.1717C395.345 26.1717 396.133 25.8744 396.817 25.2798C397.486 24.6851 397.961 23.7486 398.259 22.4851Z" fill="#003399"/>
<path d="M403.863 22.3959C403.863 21.2959 404.13 20.2256 404.68 19.185C405.23 18.1444 405.989 17.3565 406.999 16.8214C407.995 16.2714 409.11 16.0038 410.344 16.0038C412.247 16.0038 413.808 16.6281 415.012 17.862C416.231 19.0958 416.84 20.6567 416.84 22.5446C416.84 24.4473 416.231 26.0231 414.997 27.2718C413.763 28.5204 412.232 29.1448 410.359 29.1448C409.214 29.1448 408.114 28.8921 407.059 28.3569C406.018 27.8366 405.216 27.0785 404.68 26.0677C404.13 25.0717 403.863 23.8527 403.863 22.3959ZM407.267 22.5743C407.267 23.823 407.564 24.7744 408.159 25.4433C408.754 26.1122 409.482 26.4393 410.344 26.4393C411.206 26.4393 411.935 26.1122 412.529 25.4433C413.109 24.7744 413.406 23.823 413.406 22.5594C413.406 21.3256 413.109 20.3891 412.529 19.7201C411.935 19.0512 411.221 18.7242 410.344 18.7242C409.482 18.7242 408.754 19.0512 408.159 19.7201C407.564 20.3742 407.267 21.3256 407.267 22.5743Z" fill="#003399"/>
<path d="M419.055 24.2392V20.9094H425.581V24.2392H419.055Z" fill="#003399"/>
<path d="M426.057 16.3011H427.9V15.3497C427.9 14.2942 428.019 13.5064 428.242 12.9861C428.465 12.4658 428.881 12.0347 429.491 11.7077C430.1 11.3806 430.858 11.2171 431.78 11.2171C432.731 11.2171 433.653 11.3658 434.56 11.6482L434.114 13.9672C433.579 13.8483 433.073 13.7739 432.583 13.7739C432.107 13.7739 431.75 13.8929 431.542 14.1159C431.334 14.3388 431.23 14.7699 431.23 15.4091V16.3011H433.713V18.9174H431.23V28.8623H427.9V18.9174H426.057V16.3011Z" fill="#003399"/>
<path d="M443.851 28.8623V26.9744C443.39 27.6434 442.795 28.1785 442.052 28.565C441.309 28.9515 440.521 29.1448 439.688 29.1448C438.841 29.1448 438.083 28.9664 437.414 28.5948C436.745 28.2231 436.254 27.7028 435.957 27.0339C435.66 26.365 435.511 25.4433 435.511 24.2541V16.3011H438.841V22.0689C438.841 23.8378 438.901 24.923 439.019 25.3244C439.138 25.7257 439.361 26.0379 439.688 26.2758C440.015 26.5136 440.417 26.6177 440.922 26.6177C441.487 26.6177 441.993 26.469 442.453 26.1568C442.899 25.8447 443.212 25.4582 443.375 24.9973C443.539 24.5365 443.628 23.4067 443.628 21.608V16.3011H446.958V28.8623H443.851Z" fill="#003399"/>
<path d="M461.808 28.8623H458.478V22.4553C458.478 21.1026 458.404 20.2255 458.27 19.8242C458.122 19.4228 457.899 19.1106 457.571 18.8876C457.244 18.6647 456.873 18.5606 456.412 18.5606C455.832 18.5606 455.312 18.7241 454.866 19.0363C454.405 19.3485 454.093 19.7647 453.929 20.285C453.766 20.8053 453.677 21.7715 453.677 23.1689V28.8623H450.347V16.3011H453.439V18.1444C454.539 16.7173 455.921 16.0186 457.586 16.0186C458.315 16.0186 458.984 16.1524 459.593 16.42C460.203 16.6876 460.663 17.0146 460.976 17.4308C461.288 17.8471 461.511 18.3079 461.63 18.8282C461.749 19.3485 461.808 20.0917 461.808 21.058V28.8623Z" fill="#003399"/>
<path d="M476.718 28.8623H473.626V27.019C473.106 27.7325 472.511 28.2677 471.813 28.6245C471.114 28.9812 470.415 29.1448 469.702 29.1448C468.26 29.1448 467.026 28.565 465.985 27.4055C464.96 26.246 464.439 24.6257 464.439 22.5297C464.439 20.4039 464.945 18.7836 465.941 17.6687C466.937 16.5538 468.215 16.0038 469.746 16.0038C471.144 16.0038 472.363 16.5835 473.388 17.7579V11.5144H476.718V28.8623ZM467.844 22.3067C467.844 23.6446 468.022 24.6257 468.394 25.2203C468.929 26.0825 469.687 26.5284 470.638 26.5284C471.396 26.5284 472.05 26.2014 472.586 25.5473C473.121 24.8933 473.388 23.927 473.388 22.6337C473.388 21.1918 473.121 20.1512 472.6 19.512C472.08 18.8728 471.411 18.5606 470.594 18.5606C469.806 18.5606 469.137 18.8728 468.617 19.4971C468.111 20.1215 467.844 21.058 467.844 22.3067Z" fill="#003399"/>
<path d="M487.273 24.8635L490.587 25.4135C490.156 26.6325 489.487 27.5542 488.566 28.1934C487.644 28.8326 486.5 29.1448 485.117 29.1448C482.932 29.1448 481.311 28.4312 480.271 27.0041C479.438 25.8595 479.022 24.4176 479.022 22.6783C479.022 20.5972 479.572 18.962 480.657 17.7876C481.743 16.6132 483.125 16.0186 484.79 16.0186C486.663 16.0186 488.135 16.643 489.22 17.8768C490.305 19.1106 490.811 20.9985 490.766 23.5554H482.441C482.471 24.5365 482.739 25.3095 483.244 25.8595C483.749 26.4095 484.389 26.6771 485.162 26.6771C485.682 26.6771 486.128 26.5284 486.47 26.246C486.827 25.9487 487.094 25.4879 487.273 24.8635ZM487.466 21.5039C487.436 20.5377 487.198 19.8093 486.723 19.3039C486.247 18.7984 485.667 18.5457 484.998 18.5457C484.27 18.5457 483.675 18.8133 483.199 19.3336C482.724 19.8688 482.501 20.5823 482.501 21.4891H487.466V21.5039Z" fill="#003399"/>
<path d="M504.992 28.8623H501.9V27.019C501.38 27.7325 500.785 28.2677 500.086 28.6245C499.388 28.9812 498.689 29.1448 497.976 29.1448C496.534 29.1448 495.3 28.565 494.259 27.4055C493.234 26.246 492.713 24.6257 492.713 22.5297C492.713 20.4039 493.219 18.7836 494.215 17.6687C495.211 16.5538 496.489 16.0038 498.02 16.0038C499.418 16.0038 500.636 16.5835 501.662 17.7579V11.5144H504.992V28.8623ZM496.117 22.3067C496.117 23.6446 496.296 24.6257 496.667 25.2203C497.203 26.0825 497.961 26.5284 498.912 26.5284C499.67 26.5284 500.324 26.2014 500.859 25.5473C501.395 24.8933 501.662 23.927 501.662 22.6337C501.662 21.1918 501.395 20.1512 500.874 19.512C500.354 18.8728 499.685 18.5606 498.868 18.5606C498.08 18.5606 497.411 18.8728 496.89 19.4971C496.385 20.1215 496.117 21.058 496.117 22.3067Z" fill="#003399"/>
<path d="M514.863 28.8623V11.5144H518.193V17.7579C519.218 16.5835 520.437 16.0038 521.835 16.0038C523.366 16.0038 524.629 16.5538 525.64 17.6687C526.636 18.7836 527.141 20.3742 527.141 22.4405C527.141 24.5811 526.636 26.246 525.61 27.4055C524.585 28.565 523.351 29.1448 521.894 29.1448C521.18 29.1448 520.467 28.9664 519.768 28.6096C519.07 28.2528 518.475 27.7177 517.97 27.019V28.8623H514.863ZM518.178 22.3067C518.178 23.6148 518.386 24.5662 518.787 25.1906C519.367 26.0676 520.125 26.5136 521.076 26.5136C521.805 26.5136 522.429 26.2014 522.949 25.5771C523.47 24.9527 523.722 23.9567 523.722 22.6189C523.722 21.1769 523.455 20.1512 522.935 19.512C522.414 18.8728 521.745 18.5606 520.928 18.5606C520.125 18.5606 519.471 18.8728 518.936 19.4971C518.43 20.1066 518.178 21.0431 518.178 22.3067Z" fill="#003399"/>
<path d="M528.242 16.3011H531.78L534.782 25.2203L537.711 16.3011H541.16L536.73 28.4015L535.942 30.5867C535.645 31.3151 535.377 31.88 535.109 32.2665C534.842 32.653 534.544 32.9652 534.203 33.203C533.861 33.4409 533.444 33.6341 532.939 33.7679C532.434 33.9017 531.869 33.976 531.244 33.976C530.605 33.976 529.981 33.9017 529.356 33.7679L529.059 31.1665C529.579 31.2705 530.055 31.3151 530.471 31.3151C531.244 31.3151 531.809 31.0921 532.181 30.6313C532.553 30.1705 532.835 29.6056 533.028 28.8921L528.242 16.3011Z" fill="#003399"/>
<path d="M392.892 45.3777V48.0238H390.618V53.0929C390.618 54.1186 390.633 54.7132 390.677 54.8916C390.722 55.0551 390.826 55.2038 390.975 55.3078C391.123 55.4119 391.317 55.4713 391.539 55.4713C391.852 55.4713 392.298 55.3673 392.877 55.1592L393.16 57.7457C392.387 58.0728 391.51 58.2363 390.529 58.2363C389.934 58.2363 389.384 58.1322 388.908 57.939C388.433 57.7309 388.076 57.4782 387.853 57.1511C387.63 56.8389 387.466 56.393 387.377 55.8578C387.303 55.4713 387.273 54.6835 387.273 53.5091V48.0238H385.742V45.3777H387.273V42.8804L390.603 40.933V45.3777H392.892Z" fill="#003399"/>
<path d="M398.511 40.5911V46.9684C399.582 45.7197 400.86 45.0805 402.361 45.0805C403.12 45.0805 403.818 45.2291 404.428 45.5116C405.037 45.794 405.513 46.1656 405.825 46.5967C406.137 47.0427 406.345 47.5333 406.464 48.0684C406.583 48.6036 406.643 49.436 406.643 50.5658V57.939H403.313V51.2942C403.313 49.9712 403.253 49.1387 403.12 48.782C402.986 48.4252 402.778 48.1427 402.451 47.9346C402.138 47.7265 401.737 47.6225 401.247 47.6225C400.696 47.6225 400.206 47.7562 399.76 48.0238C399.329 48.2914 399.002 48.6928 398.809 49.2428C398.615 49.7928 398.511 50.5807 398.511 51.6361V57.9242H395.181V40.5911H398.511Z" fill="#003399"/>
<path d="M417.286 53.9402L420.601 54.4903C420.17 55.7092 419.501 56.6309 418.58 57.2701C417.658 57.9093 416.513 58.2215 415.131 58.2215C412.946 58.2215 411.325 57.5079 410.285 56.0809C409.452 54.9362 409.036 53.4943 409.036 51.755C409.036 49.6739 409.586 48.0387 410.671 46.8643C411.756 45.69 413.139 45.0953 414.804 45.0953C416.677 45.0953 418.148 45.7197 419.234 46.9535C420.319 48.1873 420.824 50.0752 420.78 52.6321H412.455C412.485 53.6132 412.752 54.3862 413.258 54.9362C413.763 55.4862 414.402 55.7538 415.175 55.7538C415.696 55.7538 416.142 55.62 416.484 55.3227C416.84 55.0403 417.108 54.5795 417.286 53.9402ZM417.48 50.5807C417.45 49.6144 417.212 48.886 416.736 48.3806C416.261 47.8752 415.681 47.6225 415.012 47.6225C414.283 47.6225 413.689 47.89 413.213 48.4103C412.737 48.9455 412.515 49.659 412.515 50.5658H417.48V50.5807Z" fill="#003399"/>
<path d="M430.249 57.9539V40.5911H443.107V43.5196H433.742V47.3697H442.453V50.2982H433.742V55.0254H443.434V57.9539H430.249Z" fill="#003399"/>
<path d="M454.658 57.9539V56.066C454.197 56.7349 453.602 57.2701 452.859 57.6566C452.116 58.0431 451.328 58.2363 450.496 58.2363C449.648 58.2363 448.89 58.0579 448.221 57.6863C447.552 57.3147 447.062 56.7944 446.764 56.1254C446.467 55.4565 446.318 54.5348 446.318 53.3456V45.3926H449.648V51.1604C449.648 52.9294 449.708 54.0145 449.827 54.401C449.946 54.8024 450.168 55.1146 450.496 55.3524C450.823 55.5903 451.224 55.6943 451.729 55.6943C452.294 55.6943 452.8 55.5457 453.261 55.2335C453.706 54.9213 454.019 54.5348 454.182 54.074C454.346 53.6132 454.435 52.4834 454.435 50.6847V45.3777H457.765V57.939H454.658V57.9539Z" fill="#003399"/>
<path d="M464.365 57.9539H461.035V45.3926H464.127V47.1765C464.662 46.3291 465.138 45.7791 465.554 45.5115C465.97 45.244 466.461 45.1102 466.996 45.1102C467.754 45.1102 468.483 45.3183 469.181 45.7345L468.156 48.6333C467.591 48.2765 467.07 48.0832 466.595 48.0832C466.134 48.0832 465.733 48.217 465.406 48.4697C465.079 48.7225 464.826 49.1833 464.647 49.8671C464.469 50.536 464.365 51.9482 464.365 54.074V57.9539Z" fill="#003399"/>
<path d="M469.85 51.4875C469.85 50.3874 470.118 49.3171 470.668 48.2765C471.218 47.2359 471.976 46.4481 472.987 45.9129C473.983 45.3629 475.098 45.0953 476.332 45.0953C478.234 45.0953 479.795 45.7197 480.999 46.9535C482.218 48.1873 482.828 49.7482 482.828 51.6361C482.828 53.5389 482.218 55.1146 480.985 56.3633C479.751 57.612 478.22 58.2363 476.347 58.2363C475.202 58.2363 474.102 57.9688 473.046 57.4485C472.006 56.9282 471.203 56.1701 470.668 55.1592C470.133 54.1484 469.85 52.9294 469.85 51.4875ZM473.254 51.6658C473.254 52.9145 473.552 53.8659 474.146 54.5349C474.741 55.2038 475.469 55.5308 476.332 55.5308C477.194 55.5308 477.922 55.2038 478.517 54.5349C479.097 53.8659 479.394 52.9145 479.394 51.651C479.394 50.4171 479.097 49.4658 478.517 48.8117C477.922 48.1427 477.209 47.8157 476.332 47.8157C475.469 47.8157 474.741 48.1427 474.146 48.8117C473.552 49.4658 473.254 50.4171 473.254 51.6658Z" fill="#003399"/>
<path d="M485.325 45.3778H488.432V47.2211C488.833 46.5967 489.383 46.0765 490.067 45.69C490.751 45.2886 491.509 45.0953 492.356 45.0953C493.813 45.0953 495.047 45.6751 496.073 46.8197C497.099 47.9644 497.604 49.555 497.604 51.6064C497.604 53.7024 497.099 55.3376 496.073 56.4971C495.047 57.6566 493.798 58.2363 492.342 58.2363C491.643 58.2363 491.019 58.1026 490.454 57.8201C489.889 57.5377 489.294 57.0768 488.67 56.393V62.7257H485.34V45.3778H485.325ZM488.625 51.4429C488.625 52.8551 488.908 53.8956 489.458 54.5795C490.023 55.2484 490.706 55.5903 491.509 55.5903C492.282 55.5903 492.921 55.2781 493.442 54.6538C493.947 54.0294 494.215 53.0186 494.215 51.6064C494.215 50.2834 493.947 49.3171 493.427 48.6779C492.892 48.0387 492.238 47.7116 491.465 47.7116C490.647 47.7116 489.978 48.0238 489.443 48.6482C488.893 49.2874 488.625 50.2239 488.625 51.4429Z" fill="#003399"/>
<path d="M507.504 53.9402L510.819 54.4903C510.388 55.7092 509.719 56.6309 508.798 57.2701C507.876 57.9093 506.731 58.2215 505.349 58.2215C503.164 58.2215 501.543 57.5079 500.503 56.0809C499.67 54.9362 499.254 53.4943 499.254 51.755C499.254 49.6739 499.804 48.0387 500.889 46.8643C501.974 45.69 503.357 45.0953 505.022 45.0953C506.895 45.0953 508.366 45.7197 509.452 46.9535C510.537 48.1873 511.042 50.0752 510.998 52.6321H502.673C502.703 53.6132 502.97 54.3862 503.476 54.9362C503.981 55.4862 504.62 55.7538 505.393 55.7538C505.914 55.7538 506.36 55.62 506.702 55.3227C507.058 55.0403 507.326 54.5795 507.504 53.9402ZM507.698 50.5807C507.668 49.6144 507.43 48.886 506.954 48.3806C506.479 47.8752 505.899 47.6225 505.23 47.6225C504.501 47.6225 503.907 47.89 503.431 48.4103C502.956 48.9455 502.733 49.659 502.733 50.5658H507.698V50.5807Z" fill="#003399"/>
<path d="M516.186 49.213L513.168 48.663C513.51 47.4441 514.09 46.5521 514.922 45.9724C515.755 45.3926 516.988 45.0953 518.609 45.0953C520.095 45.0953 521.195 45.2737 521.924 45.6156C522.652 45.9724 523.158 46.4184 523.455 46.9535C523.752 47.4887 523.901 48.4846 523.901 49.9266L523.871 53.8065C523.871 54.9065 523.931 55.7241 524.035 56.2444C524.139 56.7647 524.347 57.3296 524.629 57.9242H521.344C521.255 57.7012 521.151 57.3741 521.017 56.9431C520.958 56.7498 520.928 56.616 520.898 56.5566C520.333 57.1066 519.724 57.5228 519.07 57.8052C518.43 58.0877 517.732 58.2215 517.003 58.2215C515.71 58.2215 514.684 57.8647 513.941 57.166C513.198 56.4674 512.826 55.5754 512.826 54.5051C512.826 53.7916 512.99 53.1672 513.332 52.6024C513.673 52.0523 514.149 51.6212 514.759 51.3239C515.368 51.0266 516.245 50.7739 517.405 50.5509C518.966 50.2536 520.036 49.9861 520.63 49.7333V49.4063C520.63 48.7671 520.467 48.3063 520.155 48.0387C519.843 47.7711 519.248 47.6373 518.371 47.6373C517.776 47.6373 517.316 47.7562 516.988 47.9792C516.661 48.2022 516.394 48.6333 516.186 49.213ZM520.645 51.9185C520.214 52.0523 519.545 52.2307 518.624 52.424C517.702 52.6172 517.093 52.8105 516.81 53.0037C516.379 53.3159 516.156 53.7024 516.156 54.1781C516.156 54.6389 516.334 55.0403 516.676 55.3822C517.018 55.7241 517.464 55.8876 517.999 55.8876C518.594 55.8876 519.174 55.6944 519.724 55.293C520.125 54.9957 520.393 54.6241 520.512 54.193C520.601 53.9105 520.645 53.3754 520.645 52.5726V51.9185Z" fill="#003399"/>
<path d="M538.618 57.9539H535.288V51.532C535.288 50.1793 535.213 49.3022 535.08 48.9008C534.931 48.4995 534.708 48.1873 534.381 47.9792C534.054 47.7562 533.682 47.6521 533.221 47.6521C532.642 47.6521 532.121 47.8157 531.675 48.1278C531.215 48.44 530.902 48.8562 530.739 49.3765C530.575 49.8968 530.486 50.8631 530.486 52.2604V57.9539H527.156V45.3926H530.248V47.2359C531.348 45.8088 532.731 45.1102 534.396 45.1102C535.124 45.1102 535.793 45.244 536.403 45.5115C537.012 45.7791 537.473 46.1061 537.785 46.5224C538.097 46.9386 538.32 47.3994 538.439 47.9197C538.558 48.44 538.618 49.1833 538.618 50.1495V57.9539Z" fill="#003399"/>
<path d="M548.726 40.5911H552.234V49.986C552.234 51.4726 552.279 52.4388 552.368 52.8848C552.517 53.5983 552.873 54.1632 553.438 54.5943C554.003 55.0254 554.776 55.2335 555.757 55.2335C556.753 55.2335 557.497 55.0254 558.002 54.624C558.507 54.2227 558.805 53.7173 558.909 53.1226C559.013 52.528 559.057 51.5469 559.057 50.1793V40.5911H562.566V49.7036C562.566 51.7848 562.477 53.2564 562.283 54.1186C562.09 54.9808 561.748 55.7092 561.243 56.3038C560.737 56.8985 560.053 57.3593 559.206 57.7161C558.359 58.0728 557.244 58.2363 555.876 58.2363C554.211 58.2363 552.963 58.0431 552.101 57.6566C551.238 57.2701 550.569 56.7795 550.064 56.1701C549.573 55.5606 549.246 54.9214 549.083 54.2524C548.86 53.2564 548.741 51.7848 548.741 49.8523V40.5911H548.726Z" fill="#003399"/>
<path d="M577.654 57.9539H574.324V51.532C574.324 50.1793 574.25 49.3022 574.116 48.9008C573.967 48.4995 573.744 48.1873 573.417 47.9792C573.09 47.7562 572.719 47.6521 572.258 47.6521C571.678 47.6521 571.158 47.8157 570.712 48.1278C570.251 48.44 569.939 48.8562 569.775 49.3765C569.612 49.8968 569.523 50.8631 569.523 52.2604V57.9539H566.193V45.3926H569.285V47.2359C570.385 45.8088 571.767 45.1102 573.432 45.1102C574.161 45.1102 574.83 45.244 575.439 45.5115C576.049 45.7791 576.509 46.1061 576.822 46.5224C577.134 46.9386 577.357 47.3994 577.476 47.9197C577.595 48.44 577.654 49.1833 577.654 50.1495V57.9539Z" fill="#003399"/>
<path d="M581.029 43.6683V40.5911H584.358V43.6683H581.029ZM581.029 57.9539V45.3926H584.358V57.9539H581.029Z" fill="#003399"/>
<path d="M587.004 51.4875C587.004 50.3874 587.272 49.3171 587.822 48.2765C588.372 47.2359 589.13 46.4481 590.141 45.9129C591.137 45.3629 592.252 45.0953 593.486 45.0953C595.388 45.0953 596.949 45.7197 598.153 46.9535C599.372 48.1873 599.982 49.7482 599.982 51.6361C599.982 53.5389 599.372 55.1146 598.139 56.3633C596.905 57.612 595.374 58.2363 593.501 58.2363C592.356 58.2363 591.256 57.9688 590.2 57.4485C589.16 56.9282 588.357 56.1701 587.822 55.1592C587.272 54.1484 587.004 52.9294 587.004 51.4875ZM590.409 51.6658C590.409 52.9145 590.706 53.8659 591.3 54.5349C591.895 55.2038 592.623 55.5308 593.486 55.5308C594.348 55.5308 595.076 55.2038 595.671 54.5349C596.251 53.8659 596.548 52.9145 596.548 51.651C596.548 50.4171 596.251 49.4658 595.671 48.8117C595.076 48.1427 594.363 47.8157 593.486 47.8157C592.623 47.8157 591.895 48.1427 591.3 48.8117C590.706 49.4658 590.409 50.4171 590.409 51.6658Z" fill="#003399"/>
<path d="M614 57.9539H610.67V51.532C610.67 50.1793 610.596 49.3022 610.462 48.9008C610.313 48.4995 610.09 48.1873 609.763 47.9792C609.436 47.7562 609.065 47.6521 608.604 47.6521C608.024 47.6521 607.504 47.8157 607.058 48.1278C606.597 48.44 606.285 48.8562 606.121 49.3765C605.958 49.8968 605.869 50.8631 605.869 52.2604V57.9539H602.539V45.3926H605.631V47.2359C606.731 45.8088 608.113 45.1102 609.778 45.1102C610.507 45.1102 611.175 45.244 611.785 45.5115C612.394 45.7791 612.855 46.1061 613.167 46.5224C613.48 46.9386 613.703 47.3994 613.822 47.9197C613.94 48.44 614 49.1833 614 50.1495V57.9539Z" fill="#003399"/>
</g>
<defs>
<clipPath id="clip0_127_1420">
<rect width="614" height="69.8525" fill="white" transform="translate(0 0.45459)"/>
</clipPath>
</defs>
</svg>
