<?xml version="1.0" encoding="utf-8"?>
<!-- Generator: Adobe Illustrator 27.0.0, SVG Export Plug-In . SVG Version: 6.00 Build 0)  -->
<svg version="1.1" id="Vrstva_1" xmlns="http://www.w3.org/2000/svg" xmlns:xlink="http://www.w3.org/1999/xlink" x="0px" y="0px"
	 viewBox="0 0 49.7 10.71" style="enable-background:new 0 0 49.7 10.71;" xml:space="preserve">
<style type="text/css">
	.st0{fill:#1D1D1B;}
	.st1{fill-rule:evenodd;clip-rule:evenodd;fill:#164193;}
	.st2{fill-rule:evenodd;clip-rule:evenodd;fill:#FFEC00;}
	.st3{fill-rule:evenodd;clip-rule:evenodd;fill:#009540;}
	.st4{fill-rule:evenodd;clip-rule:evenodd;fill:#FFFFFF;}
</style>
<g>
	<g>
		<rect x="20.23" y="0.05" class="st0" width="0.29" height="10.62"/>
	</g>
	<g>
		<path class="st0" d="M23.49,0.04h0.78l0.58,1.85h0.01l0.58-1.85h0.78v2.44h-0.47V0.47h-0.01l-0.66,2.02h-0.47l-0.66-2.02
			l-0.01,0.01v2.01h-0.47V0.04z"/>
		<path class="st0" d="M26.93,0.04h0.49v2.44h-0.49V0.04z"/>
		<path class="st0" d="M28.1,0.04h0.6l0.93,1.83h0.01V0.04h0.47v2.44h-0.6l-0.94-1.83h-0.01v1.83H28.1V0.04z"/>
		<path class="st0" d="M30.78,0.04h0.49v2.44h-0.49V0.04z"/>
		<path class="st0" d="M33.29,0.49c-0.15-0.07-0.33-0.11-0.5-0.11c-0.17,0-0.39,0.07-0.39,0.34c0,0.42,1.07,0.25,1.07,1.06
			c0,0.54-0.42,0.74-0.92,0.74c-0.27,0-0.39-0.04-0.63-0.09l0.05-0.44c0.17,0.09,0.36,0.15,0.55,0.15c0.19,0,0.43-0.09,0.43-0.32
			c0-0.47-1.07-0.27-1.07-1.08C31.9,0.2,32.32,0,32.75,0c0.21,0,0.41,0.03,0.58,0.09L33.29,0.49z"/>
		<path class="st0" d="M34.54,0.43h-0.7V0.04h1.89v0.39h-0.7v2.06h-0.49V0.43z"/>
		<path class="st0" d="M36.22,0.04h1.44v0.39h-0.95v0.6h0.87v0.39h-0.87V2.1h0.96v0.39h-1.45V0.04z"/>
		<path class="st0" d="M38.31,0.04h0.53c0.53,0,1.15-0.02,1.15,0.66c0,0.29-0.19,0.53-0.5,0.57v0.01c0.13,0.01,0.21,0.14,0.26,0.25
			l0.39,0.96h-0.55l-0.29-0.76c-0.07-0.18-0.13-0.25-0.34-0.25H38.8v1.02h-0.49V0.04z M38.8,1.09h0.16c0.24,0,0.52-0.04,0.52-0.34
			c0-0.29-0.27-0.32-0.52-0.32H38.8V1.09z"/>
		<path class="st0" d="M41.98,0.49c-0.15-0.07-0.33-0.11-0.5-0.11c-0.17,0-0.39,0.07-0.39,0.34c0,0.42,1.07,0.25,1.07,1.06
			c0,0.54-0.42,0.74-0.92,0.74c-0.27,0-0.39-0.04-0.63-0.09l0.05-0.44c0.17,0.09,0.36,0.15,0.55,0.15c0.19,0,0.43-0.09,0.43-0.32
			c0-0.47-1.07-0.27-1.07-1.08C40.58,0.2,41.01,0,41.44,0c0.21,0,0.41,0.03,0.58,0.09L41.98,0.49z"/>
		<path class="st0" d="M43.23,0.43h-0.7V0.04h1.89v0.39h-0.7v2.06h-0.49V0.43z"/>
		<path class="st0" d="M44.66,0.04h0.53l0.63,1.92h0.01l0.62-1.92h0.49l-0.82,2.44h-0.6L44.66,0.04z"/>
		<path class="st0" d="M48.5,0c0.77,0,1.2,0.52,1.2,1.26c0,0.74-0.42,1.27-1.2,1.27c-0.78,0-1.2-0.52-1.2-1.27
			C47.3,0.51,47.72,0,48.5,0z M48.5,2.14c0.5,0,0.69-0.44,0.69-0.89c0-0.43-0.2-0.87-0.69-0.87c-0.49,0-0.69,0.44-0.69,0.87
			C47.82,1.7,48,2.14,48.5,2.14z"/>
	</g>
	<g>
		<path class="st0" d="M23.45,4.13h0.62c0.53,0,1.02,0.15,1.02,0.74c0,0.57-0.42,0.78-0.94,0.78h-0.21v0.93h-0.49V4.13z M23.94,5.26
			h0.17c0.25,0,0.47-0.08,0.47-0.36c0-0.28-0.21-0.38-0.47-0.38h-0.17V5.26z"/>
		<path class="st0" d="M25.57,4.13h0.53c0.53,0,1.15-0.02,1.15,0.66c0,0.29-0.19,0.53-0.5,0.57v0.01c0.13,0.01,0.21,0.14,0.26,0.25
			l0.39,0.96h-0.55l-0.29-0.76c-0.07-0.18-0.13-0.25-0.34-0.25h-0.16v1.02h-0.49V4.13z M26.06,5.17h0.16c0.24,0,0.52-0.04,0.52-0.34
			c0-0.29-0.27-0.32-0.52-0.32h-0.16V5.17z"/>
		<path class="st0" d="M29.01,4.09c0.77,0,1.2,0.52,1.2,1.26c0,0.74-0.42,1.27-1.2,1.27c-0.78,0-1.2-0.52-1.2-1.27
			C27.81,4.6,28.23,4.09,29.01,4.09z M29.01,6.23c0.5,0,0.69-0.45,0.69-0.89c0-0.43-0.2-0.87-0.69-0.87c-0.49,0-0.69,0.44-0.69,0.87
			C28.32,5.79,28.51,6.23,29.01,6.23z"/>
		<path class="st0" d="M31.98,4.13h0.78l0.58,1.85h0.01l0.58-1.85h0.78v2.44h-0.47V4.56h-0.01l-0.66,2.02h-0.47l-0.66-2.02
			l-0.01,0.01v2.01h-0.47V4.13z"/>
		<path class="st0" d="M35.42,4.13h0.49v2.44h-0.49V4.13z M35.73,3.61h0.5l-0.48,0.39h-0.31L35.73,3.61z"/>
		<path class="st0" d="M37.93,4.58c-0.15-0.07-0.33-0.11-0.5-0.11c-0.17,0-0.39,0.07-0.39,0.34c0,0.42,1.07,0.25,1.07,1.06
			c0,0.54-0.42,0.74-0.92,0.74c-0.27,0-0.39-0.03-0.63-0.09l0.05-0.44c0.17,0.09,0.36,0.15,0.55,0.15c0.19,0,0.43-0.09,0.43-0.32
			c0-0.47-1.07-0.27-1.07-1.08c0-0.55,0.42-0.75,0.85-0.75c0.21,0,0.41,0.03,0.58,0.09L37.93,4.58z"/>
		<path class="st0" d="M39.18,4.52h-0.7V4.13h1.89v0.39h-0.7v2.06h-0.49V4.52z"/>
		<path class="st0" d="M40.84,4.13h0.6l0.93,1.83h0.01V4.13h0.47v2.44h-0.6l-0.94-1.83h-0.01v1.83h-0.47V4.13z"/>
		<path class="st0" d="M43.52,4.13h0.49v2.44h-0.49V4.13z M43.83,3.61h0.5l-0.48,0.39h-0.31L43.83,3.61z"/>
	</g>
	<g>
		<path class="st0" d="M23.45,8.22h0.53c0.53,0,1.15-0.02,1.15,0.66c0,0.29-0.19,0.53-0.5,0.57v0.01c0.13,0.01,0.21,0.14,0.26,0.25
			l0.39,0.96h-0.55L24.43,9.9c-0.07-0.18-0.13-0.25-0.34-0.25h-0.16v1.02h-0.49V8.22z M23.94,9.26h0.16c0.24,0,0.52-0.03,0.52-0.34
			c0-0.29-0.27-0.32-0.52-0.32h-0.16V9.26z"/>
		<path class="st0" d="M26.88,8.18c0.77,0,1.2,0.52,1.2,1.26c0,0.74-0.42,1.27-1.2,1.27c-0.78,0-1.2-0.52-1.2-1.27
			C25.69,8.69,26.11,8.18,26.88,8.18z M26.88,10.32c0.5,0,0.69-0.44,0.69-0.89c0-0.43-0.2-0.87-0.69-0.87
			C26.4,8.56,26.2,9,26.2,9.43C26.2,9.88,26.38,10.32,26.88,10.32z"/>
		<path class="st0" d="M28.55,10.26L29.7,8.6h-1.1V8.22h1.63v0.4l-1.16,1.66h1.18v0.39h-1.7V10.26z"/>
		<path class="st0" d="M30.58,8.22h0.53l0.63,1.92h0.01l0.62-1.92h0.49l-0.82,2.45h-0.6L30.58,8.22z"/>
		<path class="st0" d="M34.42,8.18c0.77,0,1.2,0.52,1.2,1.26c0,0.74-0.42,1.27-1.2,1.27c-0.78,0-1.2-0.52-1.2-1.27
			C33.22,8.69,33.64,8.18,34.42,8.18z M34.42,10.32c0.5,0,0.69-0.44,0.69-0.89c0-0.43-0.2-0.87-0.69-0.87
			c-0.49,0-0.69,0.44-0.69,0.87C33.74,9.88,33.92,10.32,34.42,10.32z"/>
		<path class="st0" d="M36.04,10.24c0.07,0.02,0.14,0.04,0.23,0.04c0.32,0,0.32-0.26,0.32-0.43V8.22h0.49v1.86
			c0,0.26-0.17,0.62-0.67,0.62c-0.13,0-0.24-0.01-0.37-0.05V10.24z"/>
		<path class="st0" d="M40.71,10.63c-0.18,0.04-0.37,0.08-0.56,0.08c-0.79,0-1.34-0.4-1.34-1.22c0-0.84,0.51-1.31,1.34-1.31
			c0.16,0,0.37,0.03,0.55,0.1l-0.04,0.41c-0.19-0.1-0.35-0.13-0.53-0.13c-0.5,0-0.82,0.39-0.82,0.89c0,0.5,0.31,0.87,0.83,0.87
			c0.19,0,0.42-0.04,0.54-0.1L40.71,10.63z M39.87,8.08l-0.33-0.39h0.33l0.22,0.23l0.22-0.23h0.33l-0.33,0.39H39.87z"/>
		<path class="st0" d="M41.21,8.22h0.53c0.53,0,1.15-0.02,1.15,0.66c0,0.29-0.19,0.53-0.5,0.57v0.01c0.13,0.01,0.21,0.14,0.26,0.25
			l0.39,0.96h-0.55L42.19,9.9c-0.07-0.18-0.13-0.25-0.34-0.25H41.7v1.02h-0.49V8.22z M41.7,9.26h0.16c0.24,0,0.52-0.03,0.52-0.34
			c0-0.29-0.27-0.32-0.52-0.32H41.7V9.26z"/>
	</g>
	<g>
		<path class="st1" d="M7.68,4.01C6.51,4.03,5.34,4.26,4.15,4.53C3.58,4.66,3.04,4.77,2.52,5.02C1.67,5.43,0.54,6.19,0.57,7.59
			c0.07,3.37,7.39,2.73,9.17,2.41c1.23-0.22,2.85-0.6,4.12-1.16c1.06-0.47,1.97-0.95,2.47-1.41c-0.64,0.13-1.89,0.65-3.21,0.9
			c-0.87,0.17-1.8,0.28-2.55,0.26c-1.7-0.04-5.21-0.3-4.89-2.36C5.86,5.01,7.11,4.47,7.68,4.01L7.68,4.01z"/>
		<path class="st2" d="M6.39,7.27c1.76-0.1,4.09-0.72,6.05-1.63c1.08-0.5,2.06-1.11,2.8-1.79c1.33-1.21,0.49-2.47-0.19-3.29
			c0.68,0.11,1.64,0.93,1.96,1.59c0.4,0.85,0.53,1.91,0.15,2.81c-0.29,0.71-0.83,1.36-1.5,1.87c-0.27,0.21-0.38,0.32-0.69,0.48
			c-0.38,0.19-0.7,0.34-1.02,0.45c-1.2,0.42-2.99,0.49-4.24,0.38C8.19,8.02,7.57,7.8,6.39,7.27L6.39,7.27z"/>
		<path class="st3" d="M12.4,5.17c-0.83-1.26-2.57-1.59-4.54-1.56C6.61,3.63,5.25,3.82,3.98,4.12C3.31,4.28,2.69,4.45,2.09,4.7
			C1.36,5.02,0.5,5.35,0,5.48c1.04-1.09,3.72-3.26,7.68-4.13c2.97-0.65,8.31-0.82,7.76,1.39C15.23,3.59,13.69,4.55,12.4,5.17
			L12.4,5.17z"/>
		<polygon class="st2" points="3.58,5.47 2.56,5.63 3.45,5.81 3.25,6.36 4,5.92 4.89,6.11 4.45,5.66 5.21,5.22 4.19,5.38 3.77,4.93 
			3.58,5.47 		"/>
		<polygon class="st2" points="2.91,7.69 2.01,7.8 2.8,8.02 2.61,8.55 3.28,8.15 4.06,8.37 3.68,7.91 4.36,7.51 3.46,7.62 
			3.09,7.16 2.91,7.69 		"/>
		<polygon class="st2" points="5.39,8.84 4.61,8.86 5.28,9.11 5.09,9.55 5.68,9.26 6.34,9.5 6.04,9.08 6.63,8.79 5.86,8.82 
			5.56,8.4 5.39,8.84 		"/>
		<path class="st4" d="M14.9,3.56c-0.02-0.01-0.02-0.01-0.03-0.02c-0.5-0.41-1.21-0.76-1.87-0.97l-0.38,0.51
			c0.46,0.17,1.01,0.44,1.47,0.77c0.07,0.05,0.15,0.12,0.22,0.19c0.01,0.01,0.01,0.01,0.02,0.02C14.51,3.91,14.8,3.67,14.9,3.56
			L14.9,3.56z"/>
		<path class="st4" d="M11.67,2.23c-0.9-0.14-1.73-0.17-2.88-0.02L8.5,2.67c0.89-0.08,1.97-0.07,2.8,0.06L11.67,2.23L11.67,2.23z"/>
		<path class="st4" d="M7.33,2.46L7.11,2.83C6.72,2.9,5.78,3.09,4.99,3.25C4.67,3.32,4.51,3.36,4.3,3.41
			C4.83,3.15,6.43,2.62,7.33,2.46L7.33,2.46z"/>
		<path class="st3" d="M12.42,6.92c-0.07,0.13-0.03,0.21,0.02,0.35c0.1,0.25-0.07,0.44-0.26,0.49c-0.32,0.09-0.85,0.04-1.1-0.31
			l-0.56,0.23l-0.8-0.13c0.46-0.02,1.82-0.27,2.14-0.44l-1.13,0.18c-0.13-0.03-0.29-0.1-0.37-0.22c-0.28-0.39,0.81-0.58,1.25-0.35
			C11.94,6.89,12.22,6.92,12.42,6.92L12.42,6.92z"/>
		<path class="st3" d="M14.82,5.65c-0.04,0.11,0,0.17,0.06,0.26c0.11,0.17,0.09,0.43-0.04,0.52c-0.31,0.23-0.72,0.12-0.96-0.09
			l-0.52,0.38l-0.48,0c0.34-0.12,1.33-0.61,1.54-0.81L13.61,6.3c-0.1,0.01-0.31-0.03-0.38-0.1c-0.25-0.24,0.53-0.62,0.89-0.55
			C14.38,5.71,14.67,5.69,14.82,5.65L14.82,5.65z"/>
		<path class="st3" d="M16.07,4.31c0.02,0.09,0.07,0.13,0.17,0.18c0.16,0.09,0.27,0.26,0.21,0.4c-0.13,0.3-0.52,0.24-0.8,0.13
			L15.4,5.41l-0.38,0.1c0.22-0.16,0.78-0.73,0.86-0.93L15.4,5.05c-0.08,0.03-0.26,0.04-0.35,0c-0.31-0.12,0.14-0.57,0.46-0.59
			C15.74,4.45,15.97,4.37,16.07,4.31L16.07,4.31z"/>
	</g>
</g>
</svg>
