<svg width="76" height="76" viewBox="0 0 76 76" fill="none" xmlns="http://www.w3.org/2000/svg">
<path d="M38 0C17.0136 0 0 17.0119 0 38C0 58.9881 17.0136 76 38 76C58.9864 76 76 58.9881 76 38C76 17.0119 58.9864 0 38 0ZM56.5394 54.7793C55.9291 55.86 54.8064 56.468 53.6491 56.468C53.1079 56.468 52.5494 56.3327 52.037 56.0477C47.2927 53.3877 42.1224 51.7583 36.6585 51.205C31.1831 50.6563 25.7767 51.2119 20.5833 52.8701C18.8503 53.4234 16.9849 52.4659 16.4321 50.73C15.8737 48.9912 16.8352 47.1321 18.5739 46.5759C24.6309 44.6408 30.9469 43.9827 37.3263 44.631C43.6942 45.2793 49.7282 47.1793 55.267 50.2838C56.8618 51.1716 57.4318 53.1856 56.5394 54.7793ZM61.0879 43.2371C60.5006 44.3673 59.3491 45.0156 58.1573 45.0156C57.6391 45.0156 57.1209 44.897 56.6315 44.6408C50.7991 41.6031 44.5003 39.7221 37.8963 39.0519C31.2406 38.3708 24.6482 38.9644 18.2918 40.7976C16.5358 41.2962 14.7049 40.2921 14.204 38.5366C13.6973 36.784 14.7106 34.9531 16.4609 34.447C23.6348 32.3783 31.0736 31.7156 38.5642 32.4756C46.003 33.2333 53.1079 35.3521 59.6888 38.7813C61.3009 39.6248 61.9342 41.6192 61.0879 43.2371ZM62.7345 33.6346C62.2394 33.6346 61.7385 33.5229 61.2606 33.288C54.34 29.8369 46.8954 27.6876 39.1285 26.8994C31.35 26.1037 23.6118 26.7186 16.1212 28.7188C14.3594 29.1863 12.5515 28.1413 12.0794 26.3766C11.6073 24.6142 12.6552 22.8023 14.4228 22.3319C22.6849 20.1256 31.2291 19.4537 39.8021 20.3254C48.3636 21.1919 56.5739 23.5646 64.2085 27.3721C65.8436 28.1862 66.5057 30.172 65.6939 31.8037C65.1182 32.965 63.9494 33.6346 62.7345 33.6346Z" fill="white"/>
</svg>
