<svg width="87" height="84" viewBox="0 0 87 84" fill="none" xmlns="http://www.w3.org/2000/svg">
<path d="M86.1334 25.2002C86.1334 25.2002 85.2838 19.4088 82.667 16.8658C79.3535 13.5189 75.6492 13.5025 73.95 13.3056C61.7836 12.4525 43.517 12.4525 43.517 12.4525H43.483C43.483 12.4525 25.2164 12.4525 13.05 13.3056C11.3508 13.5025 7.64648 13.5189 4.33301 16.8658C1.71621 19.4088 0.883594 25.2002 0.883594 25.2002C0.883594 25.2002 0 32.0088 0 38.801V45.1666C0 51.9588 0.866602 58.7674 0.866602 58.7674C0.866602 58.7674 1.71621 64.5588 4.31602 67.1017C7.62949 70.4486 11.9795 70.3338 13.9166 70.6947C20.8834 71.3345 43.5 71.5314 43.5 71.5314C43.5 71.5314 61.7836 71.4986 73.95 70.6619C75.6492 70.465 79.3535 70.4486 82.667 67.1017C85.2838 64.5588 86.1334 58.7674 86.1334 58.7674C86.1334 58.7674 87 51.9752 87 45.1666V38.801C87 32.0088 86.1334 25.2002 86.1334 25.2002ZM34.5111 52.8939V29.2853L58.0113 41.1306L34.5111 52.8939Z" fill="white"/>
</svg>
